<?xml version="1.0" encoding="UTF-8"?>
<svg version="1.1" xmlns="http://www.w3.org/2000/svg" width="468" height="533">
<path d="M0 0 C1.23363281 0.19464844 2.46726562 0.38929687 3.73828125 0.58984375 C13.84065188 2.39269553 23.34529563 5.58269914 33 9 C32.67 9.66 32.34 10.32 32 11 C30.52853516 10.98259766 30.52853516 10.98259766 29.02734375 10.96484375 C2.75685 10.69755837 2.75685 10.69755837 -21 21 C-22.95037041 22.77132558 -22.95037041 22.77132558 -24 25 C-24.14276208 27.64042436 -24.14276208 27.64042436 -23 30 C-13.04943222 36.39541347 1.99464671 36.06716714 13.390625 37.03808594 C32.0340461 38.63967465 48.25261153 41.33953542 65 50 C66.44632812 50.67482422 66.44632812 50.67482422 67.921875 51.36328125 C82.38652278 58.44928645 94.70227196 71.73201359 100 87 C100 87.66 100 88.32 100 89 C96.91213012 87.56459564 94.30065446 85.83033052 91.5625 83.8125 C81.57115261 76.74761235 71.45017201 70.72907034 58.9375 70.6875 C57.77089844 70.67074219 56.60429687 70.65398437 55.40234375 70.63671875 C51.62418395 71.04012732 49.21489857 72.00025655 46 74 C44.73037866 77.30101547 44.89175407 79.67526221 46 83 C46.66 83 47.32 83 48 83 C48 83.66 48 84.32 48 85 C48.59433838 85.27360352 49.18867676 85.54720703 49.80102539 85.82910156 C51.92175999 86.95833917 53.41956383 88.11995924 55.18359375 89.734375 C59.23277318 93.28912151 63.59036367 96.25614686 68.0625 99.25 C69.74551216 100.38956163 71.42779763 101.5301972 73.109375 102.671875 C73.93501953 103.23197266 74.76066406 103.79207031 75.61132812 104.36914062 C79.03843009 106.70898538 82.43303414 109.09199713 85.8125 111.5 C86.87082031 112.2528125 87.92914063 113.005625 89.01953125 113.78125 C98.17293125 120.59531449 104.886996 128.77399199 110 139 C110 139.99 110 140.98 110 142 C110.66 142 111.32 142 112 142 C113.14082649 145.2446528 114.25953177 148.496551 115.375 151.75 C115.69210937 152.65105469 116.00921875 153.55210937 116.3359375 154.48046875 C120.16925815 165.74084816 121.30698388 176.39305057 121.125 188.25 C121.11597656 189.38824219 121.10695313 190.52648437 121.09765625 191.69921875 C121.0744028 194.46637881 121.04172868 197.2330676 121 200 C118 199 118 199 117.04296875 197.3203125 C116.76066406 196.59585938 116.47835938 195.87140625 116.1875 195.125 C112.26662468 185.74769742 107.39258545 174.33449337 98.6875 168.4375 C94.20434772 166.68983047 90.5993645 166.51144598 86 168 C82.69756124 170.58819038 81.92849895 173.29119457 81.16015625 177.30078125 C80.64318258 186.01367889 84.55120064 194.90702204 87.15576172 203.13378906 C93.05750029 221.78167461 94.18523132 239.69957702 94.25 259.125 C94.25790054 260.33056549 94.25790054 260.33056549 94.26596069 261.56048584 C94.34483038 277.15840651 93.46826193 292.17769163 88.625 307.125 C88.33367187 308.08664062 88.04234375 309.04828125 87.7421875 310.0390625 C86.03856589 315.47869643 84.03520515 320.17308785 81 325 C80.34 324.67 79.68 324.34 79 324 C78.97812622 323.0570105 78.97812622 323.0570105 78.95581055 322.0949707 C78.57076439 304.82434526 78.57076439 304.82434526 75 288 C74.78472656 287.21496094 74.56945312 286.42992187 74.34765625 285.62109375 C72.69671497 280.31659012 70.72386965 277.71185109 66 275 C62.7649847 274.64055386 60.07177199 274.91762365 57 276 C51.30447038 282.06298314 51.31287695 293.48912066 50.4375 301.375 C50.24027344 303.10810425 50.24027344 303.10810425 50.0390625 304.8762207 C49.33007019 311.31220581 48.77285946 317.71908157 48.5 324.1875 C46.13201966 378.10890493 46.13201966 378.10890493 30 393 C27.1875 394.375 27.1875 394.375 25 395 C24.85304688 394.09121094 24.85304688 394.09121094 24.703125 393.1640625 C23.35434452 385.60624083 21.96024513 377.89140222 16.3125 372.375 C10.29118492 369.87558619 5.2555101 370.23933033 -0.75 372.6875 C-7.03781838 375.86968287 -9.89529507 379.1506124 -12.25 385.8125 C-14.9494832 394.18753599 -15.13995485 402.29215585 -15.0625 411 C-15.0315625 415.95 -15.0315625 415.95 -15 421 C-26.88 421 -38.76 421 -51 421 C-45.08283782 405.61537833 -45.08283782 405.61537833 -41.5625 398.25 C-41.17054443 397.42927002 -40.77858887 396.60854004 -40.37475586 395.76293945 C-37.65524854 390.15895368 -34.71723846 385.00635204 -31 380 C-29.84290617 378.35422081 -28.6858479 376.70841654 -27.52929688 375.06225586 C-23.44477094 369.27610395 -19.20952606 363.63789776 -14.83886719 358.06469727 C-10.82827839 352.89526604 -7.17492538 347.49153399 -3.57836914 342.02783203 C-2.43425692 340.3182874 -1.22300231 338.65402569 0 337 C0.66 337 1.32 337 2 337 C2.2371875 336.30648438 2.474375 335.61296875 2.71875 334.8984375 C4.23532937 331.46763905 6.27806519 328.6185993 8.5 325.625 C13.48063153 318.78381394 18.22233363 311.80898327 22.86132812 304.73242188 C23.92559452 303.11320353 25.00143649 301.50161006 26.078125 299.890625 C29.03500689 295.3931828 31.38960744 291.28784646 33.078125 286.19140625 C34.30947665 283.26433728 35.97721359 280.73730839 37.6875 278.0625 C42.1512096 270.99427728 45.63709475 263.62559107 49.07714844 256.01757812 C49.9258909 254.16202053 50.80902608 252.32229615 51.6953125 250.484375 C64.86984094 223.07605955 67.8167865 190.57396727 61 161 C60.81244141 160.18208984 60.62488281 159.36417969 60.43164062 158.52148438 C59.83125379 155.96644007 59.20500469 153.41976424 58.5625 150.875 C58.36954346 150.10494629 58.17658691 149.33489258 57.9777832 148.54150391 C56.57865641 143.31573968 54.53284166 138.76612054 52 134 C51.54238281 133.03835937 51.08476562 132.07671875 50.61328125 131.0859375 C45.04268714 119.47635097 37.86835638 108.97802392 30.27441406 98.61767578 C28.24891851 95.83978314 26.40400994 93.14559604 25 90 C24.34 90 23.68 90 23 90 C23 89.34 23 88.68 23 88 C22.34 88 21.68 88 21 88 C19.31267723 86.01739574 17.64633943 84.0167658 16 82 C15.34 81.67 14.68 81.34 14 81 C14 80.34 14 79.68 14 79 C13.48308594 78.78601563 12.96617187 78.57203125 12.43359375 78.3515625 C8.97135477 76.42871388 6.10329075 73.89794544 3.0625 71.375 C-16.4068515 55.6091727 -37.97084556 47.36816146 -62 41 C-58.3024907 42.86060403 -54.56370036 44.62581064 -50.8125 46.375 C-50.1419458 46.68880615 -49.4713916 47.0026123 -48.78051758 47.32592773 C-45.27173894 48.96279309 -41.75154999 50.54873683 -38.1875 52.0625 C-23.61499185 58.55118637 -10.76607607 68.95161983 0.70703125 79.8828125 C2.8085689 82.02019861 2.8085689 82.02019861 5 83 C5 83.66 5 84.32 5 85 C5.66 85 6.32 85 7 85 C28.15712049 104.89490592 41.65611096 134.09863618 48 162 C48.2990625 163.18335938 48.598125 164.36671875 48.90625 165.5859375 C53.44897636 186.32264209 53.2530367 209.99486299 46 230 C45.45088533 231.61296236 44.9027364 233.22625377 44.35546875 234.83984375 C37.02945784 255.93012894 26.7552499 276.35198373 14.78515625 295.1796875 C12.48599411 298.81206182 10.35276158 302.53383511 8.2265625 306.26953125 C7.82179688 306.84058594 7.41703125 307.41164063 7 308 C6.34 308 5.68 308 5 308 C4.6596875 309.051875 4.6596875 309.051875 4.3125 310.125 C2.66158712 313.74128535 0.7091165 316.08769976 -2 319 C-2.66 319 -3.32 319 -4 319 C-4.21527344 319.53367187 -4.43054688 320.06734375 -4.65234375 320.6171875 C-6.49576844 323.87657608 -9.00013373 326.4281177 -11.5625 329.125 C-15.18633907 332.76403407 -15.18633907 332.76403407 -18 337 C-18.66 337 -19.32 337 -20 337 C-20.25652344 337.56589844 -20.51304687 338.13179688 -20.77734375 338.71484375 C-22.14047796 341.26255465 -23.73635071 343.32316138 -25.5625 345.5625 C-26.64337891 346.89667969 -26.64337891 346.89667969 -27.74609375 348.2578125 C-29.16821436 349.98801817 -30.59702677 351.71276517 -32.03515625 353.4296875 C-49.04727014 373.84422417 -65.60906807 395.95751485 -75 421 C-131.76 421 -188.52 421 -247 421 C-244.61331166 397.13311662 -228.184149 376.21222437 -210 361 C-209.34 361 -208.68 361 -208 361 C-208 360.34 -208 359.68 -208 359 C-203.52941176 355 -203.52941176 355 -201 355 C-200.74259033 354.40074707 -200.48518066 353.80149414 -200.2199707 353.18408203 C-198.88415061 350.79259783 -197.66214041 349.68415413 -195.48046875 348.0546875 C-194.78759766 347.53519531 -194.09472656 347.01570313 -193.38085938 346.48046875 C-192.65705078 345.95066406 -191.93324219 345.42085938 -191.1875 344.875 C-190.11918945 344.06869141 -190.11918945 344.06869141 -189.02929688 343.24609375 C-185.48458 340.6162483 -182.25548861 338.35439912 -178 337 C-178 336.34 -178 335.68 -178 335 C-175.90320774 333.48934275 -173.81857898 332.10707321 -171.625 330.75 C-170.98594727 330.34813477 -170.34689453 329.94626953 -169.68847656 329.53222656 C-167.79710326 328.34691535 -165.89942266 327.17235616 -164 326 C-162.61167969 325.13375 -162.61167969 325.13375 -161.1953125 324.25 C-157.19156614 321.79402779 -153.16341468 319.55128884 -148.9375 317.5 C-144.90092401 315.52545199 -141.27408913 313.25675894 -137.578125 310.7109375 C-134.47258097 308.64998555 -131.27275466 306.7658918 -128.0625 304.875 C-119.93240932 300.05433933 -112.08610863 294.84014614 -104.26513672 289.53613281 C-102.74759062 288.5069886 -101.22836476 287.48031723 -99.70751953 286.45605469 C-97.50985139 284.97578953 -95.31667775 283.48911638 -93.125 282 C-92.13512085 281.33315186 -92.13512085 281.33315186 -91.12524414 280.65283203 C-87.73434893 278.33253584 -84.90692303 275.9204436 -82 273 C-81.34 273 -80.68 273 -80 273 C-80 272.34 -80 271.68 -80 271 C-77.91796875 269.08984375 -77.91796875 269.08984375 -75.1875 266.9375 C-74.29417969 266.22464844 -73.40085937 265.51179688 -72.48046875 264.77734375 C-70 263 -70 263 -67 262 C-67 261.34 -67 260.68 -67 260 C-65.40324822 258.58829235 -63.74486398 257.24600532 -62.0625 255.9375 C-41.01291608 239.00105316 -27.10322735 218.21808932 -21 192 C-20.81050781 191.34257812 -20.62101563 190.68515625 -20.42578125 190.0078125 C-16.09168022 169.5699416 -19.80298162 148.03980322 -29.51171875 129.828125 C-31 127 -31 127 -32 124 C-32.66 124 -33.32 124 -34 124 C-34 123.34 -34 122.68 -34 122 C-34.58394531 121.73703125 -35.16789063 121.4740625 -35.76953125 121.203125 C-38.10263897 119.94463607 -39.75103421 118.55249646 -41.6875 116.75 C-54.01429807 105.88265889 -68.99746513 100.29463953 -85 97 C-85.8496948 89.47413178 -84.2010034 85.91987497 -79.7265625 79.87109375 C-78.87191406 78.94490234 -78.87191406 78.94490234 -78 78 C-77.34 78 -76.68 78 -76 78 C-75.67 77.01 -75.34 76.02 -75 75 C-72.87014581 73.13637758 -70.74465073 71.40138436 -68.5 69.6875 C-67.9121875 69.22666016 -67.324375 68.76582031 -66.71875 68.29101562 C-61.97323935 64.61426761 -57.02608309 61.27947604 -52 58 C-53.13260254 57.85751831 -53.13260254 57.85751831 -54.28808594 57.7121582 C-57.77787873 57.26300598 -61.26369048 56.78790584 -64.75 56.3125 C-65.93722656 56.16361328 -67.12445313 56.01472656 -68.34765625 55.86132812 C-79.90384435 54.25103962 -89.91294412 51.68722448 -97.37890625 42.25 C-97.91386719 41.5075 -98.44882813 40.765 -99 40 C-99.44214844 39.4225 -99.88429687 38.845 -100.33984375 38.25 C-103.65671288 33.33961724 -104.25424058 27.78821053 -104 22 C-103.27702852 19.35062983 -102.34516702 17.42130064 -101 15 C-100.34 15 -99.68 15 -99 15 C-99 14.34 -99 13.68 -99 13 C-91.89429021 9.12478277 -84.8451215 6.49004674 -77.0625 4.3125 C-76.05509766 4.01794922 -75.04769531 3.72339844 -74.00976562 3.41992188 C-50.16372527 -3.40418614 -24.43156601 -3.95985626 0 0 Z " fill="#F9F9F9" transform="translate(347,112)"/>
<path d="M0 0 C0.66 0 1.32 0 2 0 C-1.82472092 48.19148358 -24.57371907 91.89865743 -55.125 128.5 C-55.58624268 129.0580835 -56.04748535 129.61616699 -56.52270508 130.19116211 C-57.63568067 131.50139509 -58.81237168 132.75703416 -60 134 C-60.66 134 -61.32 134 -62 134 C-62 134.66 -62 135.32 -62 136 C-62.66 136 -63.32 136 -64 136 C-64 136.66 -64 137.32 -64 138 C-65.64453125 139.62109375 -65.64453125 139.62109375 -67.8125 141.4375 C-70.31290408 143.54621965 -72.70281258 145.6725703 -75 148 C-73.91460937 147.44570312 -72.82921875 146.89140625 -71.7109375 146.3203125 C-70.26573404 145.58832633 -68.82041542 144.85656752 -67.375 144.125 C-66.66214844 143.76019531 -65.94929687 143.39539063 -65.21484375 143.01953125 C-61.21248163 140.99999073 -57.31082927 139.2918889 -53 138 C-53 137.34 -53 136.68 -53 136 C-51.989375 135.443125 -50.97875 134.88625 -49.9375 134.3125 C-47.22227346 132.77276788 -44.69929375 131.10218405 -42.1875 129.25 C-39 127 -39 127 -37 127 C-36.67 126.01 -36.34 125.02 -36 124 C-33.8203125 121.95703125 -33.8203125 121.95703125 -31.125 119.8125 C-30.24070313 119.09707031 -29.35640625 118.38164063 -28.4453125 117.64453125 C-26 116 -26 116 -23 116 C-23.23396484 117.27230469 -23.23396484 117.27230469 -23.47265625 118.5703125 C-26.04890027 134.09602151 -24.92238758 145.93507533 -16 159 C-16 159.66 -16 160.32 -16 161 C-15.42894531 161.27199219 -14.85789063 161.54398438 -14.26953125 161.82421875 C-11.96100146 163.02020406 -9.86206817 164.389078 -7.6875 165.8125 C-2.66284145 168.89649702 2.45088883 170.66003259 8.08520508 172.26293945 C9.75070155 172.75821515 11.38029501 173.37092748 13 174 C13.33 174.99 13.66 175.98 14 177 C13.34 177 12.68 177 12 177 C12 177.66 12 178.32 12 179 C10.01739574 180.68732277 8.0167658 182.35366057 6 184 C5.67 184.66 5.34 185.32 5 186 C4.34 186 3.68 186 3 186 C2.73960937 186.56332031 2.47921875 187.12664062 2.2109375 187.70703125 C0.88099816 190.22533574 -0.68500996 192.39605062 -2.375 194.6875 C-8.72208729 203.68690443 -13.15623023 213.60950669 -11.4765625 224.80078125 C-10.15574882 230.89601159 -8.07021178 235.22802757 -4 240 C-4 240.66 -4 241.32 -4 242 C-3.34 242 -2.68 242 -2 242 C-0.80795953 243.15798217 0.37860398 244.32219715 1.53515625 245.515625 C6.74433833 250.79426284 12.51609698 254.72650327 18.83984375 258.58203125 C19.55269531 259.04996094 20.26554687 259.51789063 21 260 C21 260.33 21 260.66 21 261 C19.80737549 261.00410889 18.61475098 261.00821777 17.38598633 261.01245117 C-25.62239922 260.09510617 -25.62239922 260.09510617 -63 279 C-63.33 279.66 -63.66 280.32 -64 281 C-64.66 281 -65.32 281 -66 281 C-66.2475 281.721875 -66.495 282.44375 -66.75 283.1875 C-68 286 -68 286 -69.91015625 288.265625 C-72.20796637 291.27210552 -73.38564543 294.0183344 -74.6875 297.5625 C-75.10386719 298.67753906 -75.52023438 299.79257812 -75.94921875 300.94140625 C-79.21061588 310.43461796 -79.18356564 319.82833687 -75 329 C-74.67 330.134375 -74.34 331.26875 -74 332.4375 C-73.67 333.283125 -73.34 334.12875 -73 335 C-72.01 335.33 -71.02 335.66 -70 336 C-70 336.66 -70 337.32 -70 338 C-68.576875 338.4640625 -68.576875 338.4640625 -67.125 338.9375 C-64 340 -64 340 -62 341 C-62 341.66 -62 342.32 -62 343 C-77.24321117 351.0274899 -91.87320964 356.40276259 -109.3125 356.375 C-110.82154907 356.37367065 -110.82154907 356.37367065 -112.36108398 356.37231445 C-122.73591436 356.20760806 -130.75887598 353.72981035 -140 349 C-140.78375 348.608125 -141.5675 348.21625 -142.375 347.8125 C-143.179375 347.4103125 -143.179375 347.4103125 -144 347 C-144 346.34 -144 345.68 -144 345 C-145.32 344.34 -146.64 343.68 -148 343 C-148 342.34 -148 341.68 -148 341 C-146.7625 341.165 -145.525 341.33 -144.25 341.5 C-138.52310067 342.13834865 -132.75561529 342.31768006 -127 342 C-126.67 341.67 -126.34 341.34 -126 341 C-126.804375 340.278125 -127.60875 339.55625 -128.4375 338.8125 C-131.10398851 335.88586627 -131.4507338 334.75647576 -132 331 C-130.81664062 330.78085937 -129.63328125 330.56171875 -128.4140625 330.3359375 C-115.36728241 327.77931527 -104.88666243 324.45244065 -97 313 C-93.60380762 307.18091427 -92.24034919 301.68797748 -92 295 C-91.96003906 294.01 -91.92007813 293.02 -91.87890625 292 C-91.62870725 279.75496659 -92.89356342 267.71789666 -99.1875 256.97265625 C-100.2205345 254.46456769 -100.03144593 253.48818 -99 251 C-92.22307744 241.52793245 -79.98660847 236.18058335 -68.953125 233.48828125 C-63.00858618 232.50538793 -57.01569454 232.23543204 -51 232 C-66.93488663 226.48007195 -79.9782998 227.553075 -95.375 234.75 C-101.46760523 237.98952289 -107.59594603 242.20925983 -111.34765625 248.125 C-113.71449141 250.81077039 -115.91057542 251.07198768 -119.375 251.875 C-120.73217797 252.21059737 -122.08892576 252.54793765 -123.4453125 252.88671875 C-124.54407715 253.15427979 -124.54407715 253.15427979 -125.66503906 253.42724609 C-140.000864 256.9437502 -153.10678301 261.37505463 -166.24853516 268.15551758 C-168 269 -168 269 -171 270 C-171 270.66 -171 271.32 -171 272 C-172.66666667 273.66666667 -174.33333333 275.33333333 -176 277 C-178.32933956 280.77056973 -178.21600835 283.48114323 -177.5859375 287.765625 C-175.79594967 294.59144525 -169.57318925 297.87956784 -164.01171875 301.484375 C-163.34785156 301.98453125 -162.68398437 302.4846875 -162 303 C-162 303.66 -162 304.32 -162 305 C-173.27113204 306.43125486 -188.86412415 308.07641927 -199 302 C-194.75603837 309.2688622 -194.75603837 309.2688622 -188 314 C-188.33 314.66 -188.66 315.32 -189 316 C-204.49047301 317.13807557 -220.52315167 311.11669502 -233 302 C-233 301.34 -233 300.68 -233 300 C-233.598125 299.87625 -234.19625 299.7525 -234.8125 299.625 C-237 299 -237 299 -240 297 C-240 296.34 -240 295.68 -240 295 C-240.639375 294.690625 -241.27875 294.38125 -241.9375 294.0625 C-244 293 -244 293 -245 292 C-244.87678172 289.95415167 -244.74649069 287.90847135 -244.57958984 285.86572266 C-243.80726555 276.22733663 -244.4363201 268.36631567 -247 259 C-247.34719574 257.33616587 -247.68565335 255.67035178 -248 254 C-243.88366135 251.86560218 -239.85159232 249.9130009 -235.5 248.3125 C-221.24092732 242.7185561 -206.62312884 233.74084751 -195.5234375 223.25 C-194 222 -194 222 -192 222 C-192 221.34 -192 220.68 -192 220 C-191.34 220 -190.68 220 -190 220 C-189.73445313 219.41347656 -189.46890625 218.82695312 -189.1953125 218.22265625 C-187.96333611 215.93182434 -186.67472596 214.30837792 -184.875 212.4375 C-184.06675781 211.56931641 -184.06675781 211.56931641 -183.2421875 210.68359375 C-176.29015472 205.46351339 -168.41071018 205.39853175 -160.0703125 205.1796875 C-155.34922613 204.99801914 -155.34922613 204.99801914 -151.55908203 202.51953125 C-150.28640335 200.45501629 -150.28640335 200.45501629 -149 197 C-148.51660156 195.80890625 -148.51660156 195.80890625 -148.0234375 194.59375 C-147.80945313 193.9028125 -147.59546875 193.211875 -147.375 192.5 C-147.13910156 191.74847656 -146.90320313 190.99695313 -146.66015625 190.22265625 C-145.74885093 187.15441527 -144.85329171 184.08497771 -144 181 C-146.86510042 182.88493449 -149.70084794 184.78457289 -152.484375 186.7890625 C-153.35578125 187.41554687 -154.2271875 188.04203125 -155.125 188.6875 C-155.95257813 189.28949219 -156.78015625 189.89148438 -157.6328125 190.51171875 C-159.83358202 191.89537088 -161.46232455 192.56146162 -164 193 C-164 193.66 -164 194.32 -164 195 C-174.33166266 202.49851379 -174.33166266 202.49851379 -180.25 202.4375 C-181.1575 202.293125 -182.065 202.14875 -183 202 C-183.04471587 199.80892213 -183.05811425 197.62513715 -183.02734375 195.43359375 C-183.00511895 193.45558617 -183.05439743 191.47687208 -183.125 189.5 C-181.55762444 184.62372049 -178.50689032 182.51140948 -174.64453125 179.2734375 C-170.36273703 175.59248589 -166.67751875 171.3886863 -163.43359375 166.76953125 C-162.96050781 166.18558594 -162.48742187 165.60164062 -162 165 C-161.34 165 -160.68 165 -160 165 C-160 164.34 -160 163.68 -160 163 C-159.34 163 -158.68 163 -158 163 C-158 162.34 -158 161.68 -158 161 C-157.34 161 -156.68 161 -156 161 C-155.72687988 160.41605469 -155.45375977 159.83210937 -155.17236328 159.23046875 C-154.02431862 157.04626716 -152.76464784 155.24971529 -151.2421875 153.3125 C-150.70335937 152.62067627 -150.16453125 151.92885254 -149.609375 151.21606445 C-149.03703125 150.48476318 -148.4646875 149.75346191 -147.875 149 C-137.35047905 135.35460241 -128.60476165 120.91338174 -120 106 C-119.60828613 105.32163086 -119.21657227 104.64326172 -118.81298828 103.94433594 C-114.76866919 96.87782495 -111.54004608 89.7633313 -108.77783203 82.11083984 C-107.84871577 79.58945277 -106.87601207 77.08654884 -105.90234375 74.58203125 C-97.33875262 52.42906313 -91.73692952 30.2607102 -87 7 C-86.34 7 -85.68 7 -85 7 C-75.48277915 32.09085496 -78.55389859 62.06895015 -87 87 C-87.32460205 87.9590625 -87.32460205 87.9590625 -87.65576172 88.9375 C-93.81106296 106.61615129 -104.63910176 123.20526113 -116 138 C-115.25234375 137.37351563 -114.5046875 136.74703125 -113.734375 136.1015625 C-112.74953125 135.28429687 -111.7646875 134.46703125 -110.75 133.625 C-109.77546875 132.81289062 -108.8009375 132.00078125 -107.796875 131.1640625 C-105.5447318 129.42148243 -103.59288614 128.123584 -101 127 C-101 126.34 -101 125.68 -101 125 C-99.28048026 123.46148234 -97.49812503 121.99268241 -95.6875 120.5625 C-91.83532998 117.54764431 -91.83532998 117.54764431 -88.26953125 114.21484375 C-87 113 -87 113 -85 113 C-85 112.34 -85 111.68 -85 111 C-83.390625 109.34375 -83.390625 109.34375 -81.25 107.5 C-80.55390625 106.8915625 -79.8578125 106.283125 -79.140625 105.65625 C-77.15539208 104.12023037 -75.28127955 103.0276034 -73 102 C-73 101.34 -73 100.68 -73 100 C-69.53846154 97 -69.53846154 97 -67 97 C-67 96.34 -67 95.68 -67 95 C-65.6015625 93.66015625 -65.6015625 93.66015625 -63.625 92.0625 C-58.17074923 87.43760757 -51.23654317 81.47308634 -48 75 C-47.34 75 -46.68 75 -46 75 C-45.76410156 74.44570312 -45.52820313 73.89140625 -45.28515625 73.3203125 C-43.6873545 70.43552758 -41.68148991 68.28827968 -39.4375 65.875 C-36.36280814 62.68492491 -36.36280814 62.68492491 -34 59 C-33.34 59 -32.68 59 -32 59 C-31.61328125 58.17242187 -31.61328125 58.17242187 -31.21875 57.328125 C-29.82036875 54.65685825 -28.21236695 52.23148091 -26.5 49.75 C-25.8915625 48.85796875 -25.283125 47.9659375 -24.65625 47.046875 C-24.1096875 46.37140625 -23.563125 45.6959375 -23 45 C-22.34 45 -21.68 45 -21 45 C-20.65195312 43.99259766 -20.65195312 43.99259766 -20.296875 42.96484375 C-18.65720966 39.21633172 -16.48605594 35.97788248 -14.25 32.5625 C-7.73095011 22.36070933 -3.08431298 11.74203362 0 0 Z " fill="#F8F7F7" transform="translate(258,0)"/>
<path d="M0 0 C3.53899719 0.81988151 7.02073627 1.77759237 10.50024414 2.81933594 C11.17651855 3.01188965 11.85279297 3.20444336 12.54956055 3.40283203 C20.88230938 5.79877254 28.31564299 8.89999726 35.50024414 13.81933594 C33.920124 17.31817339 32.89151099 18.12370252 29.50024414 19.81933594 C29.2024707 20.42648437 28.90469727 21.03363281 28.59790039 21.65917969 C27.35167286 24.11171999 25.94268363 25.5065087 23.93774414 27.38183594 C15.57523986 35.53224771 7.98093761 45.09829574 1.50024414 54.81933594 C0.84024414 54.81933594 0.18024414 54.81933594 -0.49975586 54.81933594 C-0.59643555 55.35945313 -0.69311523 55.89957031 -0.79272461 56.45605469 C-1.70007573 59.48891339 -3.20888549 61.90232963 -4.81225586 64.63183594 C-8.28570224 70.91542168 -10.1377072 76.92886774 -11.77319336 83.89746094 C-12.49975586 86.81933594 -12.49975586 86.81933594 -13.49975586 87.81933594 C-15.87276455 87.91428327 -18.21654289 87.94492913 -20.58984375 87.93286133 C-21.33126114 87.93300735 -22.07267853 87.93315338 -22.83656311 87.93330383 C-25.29854207 87.93260459 -27.76044629 87.92481168 -30.22241211 87.91699219 C-31.92492125 87.91512805 -33.62743093 87.91370413 -35.3299408 87.91270447 C-39.81968659 87.90887896 -44.30940024 87.8990484 -48.7991333 87.88800049 C-53.37707077 87.87778707 -57.95501341 87.873207 -62.53295898 87.86816406 C-71.52190543 87.85742616 -80.51082798 87.84034935 -89.49975586 87.81933594 C-88.9403535 84.28163781 -88.4178362 81.15388339 -86.89819336 77.90136719 C-86.57608887 77.20906006 -86.25398438 76.51675293 -85.92211914 75.8034668 C-85.57648926 75.08682861 -85.23085937 74.37019043 -84.87475586 73.63183594 C-84.52010254 72.88877197 -84.16544922 72.14570801 -83.80004883 71.38012695 C-80.84259414 65.29872091 -77.73690607 59.12149959 -73.49975586 53.81933594 C-72.83975586 53.81933594 -72.17975586 53.81933594 -71.49975586 53.81933594 C-71.19038086 52.79839844 -71.19038086 52.79839844 -70.87475586 51.75683594 C-69.30612629 48.40567276 -67.30876824 46.09284348 -64.83959961 43.37011719 C-63.40886505 41.8428414 -63.40886505 41.8428414 -62.49975586 39.81933594 C-61.83975586 39.81933594 -61.17975586 39.81933594 -60.49975586 39.81933594 C-60.41725586 38.975 -60.33475586 38.13066406 -60.24975586 37.26074219 C-59.37329786 33.23907813 -57.65996298 30.19556063 -55.49975586 26.75683594 C-55.10328857 26.11286865 -54.70682129 25.46890137 -54.29833984 24.80541992 C-45.99872797 11.45969633 -45.99872797 11.45969633 -41.49975586 5.81933594 C-40.83975586 5.81933594 -40.17975586 5.81933594 -39.49975586 5.81933594 C-39.49975586 5.15933594 -39.49975586 4.49933594 -39.49975586 3.81933594 C-38.83975586 3.81933594 -38.17975586 3.81933594 -37.49975586 3.81933594 C-37.16975586 2.82933594 -36.83975586 1.83933594 -36.49975586 0.81933594 C-27.9000925 -4.91377297 -9.84608454 -1.956908 0 0 Z " fill="#F9F9F9" transform="translate(89.499755859375,445.1806640625)"/>
<path d="M0 0 C2.68407927 1.62609619 5.26850251 3.20398156 7.70703125 5.1796875 C7.70703125 5.8396875 7.70703125 6.4996875 7.70703125 7.1796875 C8.30515625 7.4478125 8.90328125 7.7159375 9.51953125 7.9921875 C11.67927933 9.16462217 13.06493381 10.37338032 14.70703125 12.1796875 C13.45100949 15.94775279 12.19690558 16.39215257 8.83203125 18.3671875 C7.94773438 18.89699219 7.0634375 19.42679687 6.15234375 19.97265625 C3.70703125 21.1796875 3.70703125 21.1796875 0.70703125 21.1796875 C0.70703125 21.8396875 0.70703125 22.4996875 0.70703125 23.1796875 C-1.26489258 24.69189453 -1.26489258 24.69189453 -4 26.4375 C-4.97904297 27.06269531 -5.95808594 27.68789063 -6.96679688 28.33203125 C-8.00255859 28.98300781 -9.03832031 29.63398438 -10.10546875 30.3046875 C-11.12962891 30.96339844 -12.15378906 31.62210937 -13.20898438 32.30078125 C-20.91119145 37.1796875 -20.91119145 37.1796875 -24.29296875 37.1796875 C-24.29296875 37.8396875 -24.29296875 38.4996875 -24.29296875 39.1796875 C-25.10636719 39.64117187 -25.91976562 40.10265625 -26.7578125 40.578125 C-30.60809617 42.76962504 -34.45159519 44.97262128 -38.29296875 47.1796875 C-39.34339355 47.78127686 -39.34339355 47.78127686 -40.41503906 48.39501953 C-42.56550769 49.62954782 -44.71176785 50.87094579 -46.85546875 52.1171875 C-47.56783691 52.53121826 -48.28020508 52.94524902 -49.01416016 53.37182617 C-54.82482379 56.79864481 -60.26596749 60.60881715 -65.65625 64.66015625 C-68.29296875 66.1796875 -68.29296875 66.1796875 -70.453125 66.08984375 C-72.47601536 65.08913578 -73.80329741 64.00378921 -75.41796875 62.4296875 C-87.07017672 52.11057112 -103.43812633 49.69266885 -118.29296875 47.1796875 C-119.50855469 46.97214844 -120.72414063 46.76460938 -121.9765625 46.55078125 C-124.74725357 46.08410419 -127.5189778 45.62625801 -130.29296875 45.1796875 C-129.09751712 41.59333261 -128.47113228 41.46115016 -125.23046875 39.8046875 C-121.33902582 37.76276609 -117.67143649 35.53977395 -114.01953125 33.09765625 C-112.29296875 32.1796875 -112.29296875 32.1796875 -109.29296875 32.1796875 C-109.29296875 31.5196875 -109.29296875 30.8596875 -109.29296875 30.1796875 C-108.28943359 29.70402344 -108.28943359 29.70402344 -107.265625 29.21875 C-99.93005336 25.65435143 -92.94355601 21.69768636 -85.99438477 17.43212891 C-85.29756592 17.01108887 -84.60074707 16.59004883 -83.8828125 16.15625 C-83.26269287 15.77549316 -82.64257324 15.39473633 -82.00366211 15.00244141 C-80.29296875 14.1796875 -80.29296875 14.1796875 -77.29296875 14.1796875 C-77.29296875 13.5196875 -77.29296875 12.8596875 -77.29296875 12.1796875 C-75.5685651 11.19215686 -73.83821849 10.21499944 -72.10546875 9.2421875 C-71.14253906 8.69691406 -70.17960937 8.15164063 -69.1875 7.58984375 C-66.48634033 6.27389417 -64.24940774 5.60666863 -61.29296875 5.1796875 C-61.29296875 4.5196875 -61.29296875 3.8596875 -61.29296875 3.1796875 C-58.75377869 1.88295148 -56.21182637 0.59220913 -53.66796875 -0.6953125 C-52.95511719 -1.06011719 -52.24226563 -1.42492187 -51.5078125 -1.80078125 C-34.83647148 -10.2129258 -16.22899051 -8.97118574 0 0 Z " fill="#F5F5F5" transform="translate(207.29296875,384.8203125)"/>
<path d="M0 0 C3.47509264 2.5151223 6.77478836 5.1727932 10 8 C8.46006593 11.31256928 7.17177465 13.07771233 4 15 C3.01 15 2.02 15 1 15 C1 15.66 1 16.32 1 17 C-0.40185547 18.12573242 -0.40185547 18.12573242 -2.3671875 19.35546875 C-3.08358398 19.80994385 -3.79998047 20.26441895 -4.53808594 20.73266602 C-5.6948584 21.45280884 -5.6948584 21.45280884 -6.875 22.1875 C-8.4411087 23.17810114 -10.00621738 24.1702851 -11.5703125 25.1640625 C-12.3324707 25.6477832 -13.09462891 26.13150391 -13.87988281 26.62988281 C-17.3161699 28.85056949 -20.62700586 31.23641258 -23.921875 33.66015625 C-26.19487583 35.12564363 -28.46475434 36.07366024 -31 37 C-31 37.66 -31 38.32 -31 39 C-32.97231683 40.4299297 -34.93088581 41.72303622 -37 43 C-37.71929687 43.45246094 -38.43859375 43.90492188 -39.1796875 44.37109375 C-41.11584635 45.587222 -43.05615991 46.79620055 -45 48 C-45.825 47.175 -46.65 46.35 -47.5 45.5 C-58.0625683 36.4187675 -73.30671611 31.35938653 -86 26 C-83.41883269 22.9134293 -80.57384037 21.84252135 -76.875 20.375 C-71.35886928 18.10803747 -66.06772471 15.56836573 -60.8125 12.75 C-60.11318359 12.37528564 -59.41386719 12.00057129 -58.69335938 11.61450195 C-56.46033221 10.41316757 -54.22994584 9.20704355 -52 8 C-48.62993153 6.17814534 -45.25415471 4.36743663 -41.875 2.5625 C-41.09358643 2.13743164 -40.31217285 1.71236328 -39.50708008 1.27441406 C-27.52172934 -5.11811751 -12.12177388 -7.40323103 0 0 Z " fill="#F3F2F3" transform="translate(273,344)"/>
<path d="M0 0 C8.58 0 17.16 0 26 0 C26 20.89299851 17.32079755 45.58025372 3.30859375 61.109375 C0.65648653 63.28132068 -1.71175563 64.11307038 -5 65 C-9 60.25 -9 60.25 -9 58 C-10.09054687 57.56880859 -10.09054687 57.56880859 -11.203125 57.12890625 C-12.93162212 56.43123074 -14.65244744 55.71374409 -16.359375 54.96484375 C-22.00612641 52.53821692 -26.86540571 51.39578028 -33 51 C-32.67 49.35 -32.34 47.7 -32 46 C-31.34 46 -30.68 46 -30 46 C-30 45.34 -30 44.68 -30 44 C-29.34 44 -28.68 44 -28 44 C-27.731875 43.41734375 -27.46375 42.8346875 -27.1875 42.234375 C-25.98519009 39.97213399 -24.66174087 38.19423682 -23 36.25 C-22.484375 35.63640625 -21.96875 35.0228125 -21.4375 34.390625 C-20 33 -20 33 -18 33 C-17.79375 32.319375 -17.5875 31.63875 -17.375 30.9375 C-15.80637043 27.58633682 -13.80901238 25.27350754 -11.33984375 22.55078125 C-9.90910919 21.02350546 -9.90910919 21.02350546 -9 19 C-8.34 19 -7.68 19 -7 19 C-6.7525 18.360625 -6.505 17.72125 -6.25 17.0625 C-4.89907583 13.75273579 -3.41357894 10.5204258 -1.90234375 7.28125 C-0.7676002 4.61067043 -0.7676002 4.61067043 0 0 Z " fill="#F5F4F4" transform="translate(294,280)"/>
<path d="M0 0 C0.99 0 1.98 0 3 0 C1.61759097 7.47364882 -0.76451288 14.15915076 -4 21 C-4.34417969 21.72952881 -4.68835938 22.45905762 -5.04296875 23.21069336 C-8.43325829 30.19991814 -8.43325829 30.19991814 -11 33 C-11.66 33 -12.32 33 -13 33 C-13 33.66 -13 34.32 -13 35 C-13.66 35 -14.32 35 -15 35 C-15 35.66 -15 36.32 -15 37 C-15.66 37 -16.32 37 -17 37 C-17 37.66 -17 38.32 -17 39 C-21.6555181 42.7207962 -26.25736633 45.20498861 -31.75 47.4375 C-47.23041992 54.00695189 -63.75871524 62.52647517 -70.875 78.8125 C-71.24625 79.864375 -71.6175 80.91625 -72 82 C-72.5878125 83.4540625 -72.5878125 83.4540625 -73.1875 84.9375 C-73.455625 85.618125 -73.72375 86.29875 -74 87 C-74.33 87 -74.66 87 -75 87 C-75.76007423 70.55283826 -72.48784137 58.39977968 -62.75 44.875 C-62.1725 44.25625 -61.595 43.6375 -61 43 C-60.34 43 -59.68 43 -59 43 C-59 42.34 -59 41.68 -59 41 C-51.58097334 35.26648777 -44.53367054 33.21550778 -35.41015625 31.65625 C-22.24502574 29.12275409 -12.59307954 18.38973854 -5 8 C-4.02129432 6.45017929 -3.0598391 4.88916892 -2.125 3.3125 C-1.073125 1.6728125 -1.073125 1.6728125 0 0 Z " fill="#E9E8E8" transform="translate(125,292)"/>
<path d="M0 0 C6.39405411 2.33513261 11.22998157 5.89220983 16.3671875 10.28515625 C17.09679687 10.8471875 17.82640625 11.40921875 18.578125 11.98828125 C28.31181935 19.84354336 34.39512424 30.97332017 39.9921875 41.97265625 C40.33515869 42.64361328 40.67812988 43.31457031 41.03149414 44.00585938 C42.70341863 47.42374513 43.3671875 49.40187445 43.3671875 53.28515625 C34.57013658 53.66579788 26.05555745 52.49247317 17.3671875 51.28515625 C17.39039063 50.35574219 17.41359375 49.42632812 17.4375 48.46875 C17.62324011 39.17301785 17.62324011 39.17301785 15.3671875 30.28515625 C14.779375 28.58359375 14.779375 28.58359375 14.1796875 26.84765625 C11.76016557 22.09204418 8.27475473 16.73893987 3.3671875 14.28515625 C3.3671875 13.62515625 3.3671875 12.96515625 3.3671875 12.28515625 C2.79742187 12.01574219 2.22765625 11.74632812 1.640625 11.46875 C-0.71181009 10.24402864 -2.82514707 8.85254663 -5.0078125 7.34765625 C-8.45759226 5.01549109 -11.85541947 3.02856842 -15.6328125 1.28515625 C-15.6328125 0.62515625 -15.6328125 -0.03484375 -15.6328125 -0.71484375 C-11.09065445 -2.98592277 -4.71795065 -1.2809866 0 0 Z " fill="#EFEEEE" transform="translate(276.6328125,216.71484375)"/>
<path d="M0 0 C1.60101323 0.69224137 3.16560078 1.46788693 4.71875 2.26171875 C3.39875 2.59171875 2.07875 2.92171875 0.71875 3.26171875 C0.71875 2.60171875 0.71875 1.94171875 0.71875 1.26171875 C-0.60125 1.59171875 -1.92125 1.92171875 -3.28125 2.26171875 C-3.43936388 5.31442338 -3.43936388 5.31442338 -2.28125 8.26171875 C-7.04694801 6.49160235 -11.06289499 4.07395543 -15.28125 1.26171875 C-15.28125 0.60171875 -15.28125 -0.05828125 -15.28125 -0.73828125 C-10.93990003 -2.90895623 -4.48346352 -1.45098391 0 0 Z " fill="#AFADAD" transform="translate(276.28125,216.73828125)"/>
<path d="M0 0 C4.10811428 1.44992269 7.46855666 3.45407573 11 6 C11 6.33 11 6.66 11 7 C-1.21 7 -13.42 7 -26 7 C-26 6.67 -26 6.34 -26 6 C-17.42 5.67 -8.84 5.34 0 5 C0 3.35 0 1.7 0 0 Z " fill="#777472" transform="translate(268,254)"/>
<path d="M0 0 C0.99 0 1.98 0 3 0 C2.54619105 1.89692143 2.08675008 3.79249595 1.625 5.6875 C1.36976562 6.74324219 1.11453125 7.79898437 0.8515625 8.88671875 C0.08094511 11.70406766 -0.85498543 14.31668325 -2 17 C-2.77772405 14.66682784 -3.42415568 12.38564077 -4 10 C-4.99 10.66 -5.98 11.32 -7 12 C-5.62318268 9.18291755 -4.16486381 6.44556529 -2.5625 3.75 C-2.15128906 3.04359375 -1.74007812 2.3371875 -1.31640625 1.609375 C-0.88199219 1.07828125 -0.44757813 0.5471875 0 0 Z " fill="#A09C9C" transform="translate(125,292)"/>
<path d="M0 0 C0.33 0 0.66 0 1 0 C1.33 4.62 1.66 9.24 2 14 C2.66 13.67 3.32 13.34 4 13 C4 11.68 4 10.36 4 9 C4.99 9 5.98 9 7 9 C6.57405412 10.44096586 6.13373367 11.87768712 5.6875 13.3125 C5.44386719 14.11300781 5.20023437 14.91351563 4.94921875 15.73828125 C3.95817977 18.09964573 2.91925057 19.33879993 1 21 C0 20 0 20 -0.11352539 18.05053711 C-0.10567017 16.8015564 -0.10567017 16.8015564 -0.09765625 15.52734375 C-0.09443359 14.62822266 -0.09121094 13.72910156 -0.08789062 12.80273438 C-0.07951172 11.85720703 -0.07113281 10.91167969 -0.0625 9.9375 C-0.05798828 8.98810547 -0.05347656 8.03871094 -0.04882812 7.06054688 C-0.0370011 4.70696935 -0.02052025 2.35351523 0 0 Z " fill="#A69C9E" transform="translate(426,416)"/>
<path d="M0 0 C0.66 0 1.32 0 2 0 C1.41523944 7.09406894 0.36766005 14.01563899 -1 21 C-1.66 19.68 -2.32 18.36 -3 17 C-3.66 17.33 -4.32 17.66 -5 18 C-4.27595226 13.95295419 -3.16553713 10.10929598 -1.9375 6.1875 C-1.57527344 5.02605469 -1.21304687 3.86460937 -0.83984375 2.66796875 C-0.56269531 1.78753906 -0.28554688 0.90710937 0 0 Z " fill="#B2ABAD" transform="translate(258,0)"/>
<path d="M0 0 C8.58 0 17.16 0 26 0 C26 8 26 8 24 12 C23.505 7.05 23.505 7.05 23 2 C15.74 1.67 8.48 1.34 1 1 C0.67 2.32 0.34 3.64 0 5 C0 3.35 0 1.7 0 0 Z " fill="#CECAC9" transform="translate(294,280)"/>
<path d="M0 0 C0.66 0.99 1.32 1.98 2 3 C0.08181358 4.68401821 -1.83873783 6.36499386 -3.765625 8.0390625 C-5.18758727 9.28700841 -6.59565689 10.55109988 -7.984375 11.8359375 C-8.88929688 12.65964844 -8.88929688 12.65964844 -9.8125 13.5 C-10.35519531 14.0053125 -10.89789063 14.510625 -11.45703125 15.03125 C-11.96621094 15.3509375 -12.47539062 15.670625 -13 16 C-13.99 15.67 -14.98 15.34 -16 15 C-14.68 14.34 -13.36 13.68 -12 13 C-12 12.34 -12 11.68 -12 11 C-10.390625 9.4140625 -10.390625 9.4140625 -8.25 7.625 C-5.3756268 5.18382134 -2.61456008 2.72350008 0 0 Z " fill="#CECBCC" transform="translate(203,84)"/>
<path d="M0 0 C0.66 0.66 1.32 1.32 2 2 C1.7578125 4.6875 1.7578125 4.6875 1.125 8 C0.1267856 13.7525304 -0.23669123 19.17476579 0 25 C-0.66 25 -1.32 25 -2 25 C-1.98952637 24.43490723 -1.97905273 23.86981445 -1.96826172 23.28759766 C-1.92675212 20.73344347 -1.9006904 18.17936018 -1.875 15.625 C-1.85824219 14.73554688 -1.84148437 13.84609375 -1.82421875 12.9296875 C-1.81777344 12.07890625 -1.81132812 11.228125 -1.8046875 10.3515625 C-1.79421387 9.56604004 -1.78374023 8.78051758 -1.77294922 7.97119141 C-1.82009873 5.765535 -1.82009873 5.765535 -4 4 C-2.68 2.68 -1.36 1.36 0 0 Z " fill="#A8A5A2" transform="translate(233,115)"/>
<path d="M0 0 C0.66 0 1.32 0 2 0 C4.10575375 5.52760359 5.37851209 10.06997733 5 16 C4.67 16 4.34 16 4 16 C3.690625 14.865625 3.38125 13.73125 3.0625 12.5625 C2.37075469 9.21224901 2.37075469 9.21224901 1 8 C0.67 9.65 0.34 11.3 0 13 C-0.66 13 -1.32 13 -2 13 C-1.48041715 8.62065881 -0.94324258 4.31196609 0 0 Z " fill="#BCB6B6" transform="translate(171,7)"/>
<path d="M0 0 C0.33 0.99 0.66 1.98 1 3 C-4.32076966 8.5584219 -9.1199677 12.55998385 -16 16 C-12.21309138 11.36103694 -8.30424428 7.3506875 -3.734375 3.48046875 C-1.91019463 1.96268408 -1.91019463 1.96268408 0 0 Z " fill="#BCB9BA" transform="translate(298,356)"/>
<path d="M0 0 C0.33 0 0.66 0 1 0 C1.8632601 3.71888866 2.11721556 7.14296488 2.09765625 10.95703125 C2.09443359 12.06884766 2.09121094 13.18066406 2.08789062 14.32617188 C2.07951172 15.47666016 2.07113281 16.62714844 2.0625 17.8125 C2.05798828 18.98232422 2.05347656 20.15214844 2.04882812 21.35742188 C2.0370693 24.23833358 2.02063426 27.11914044 2 30 C1.01 29.67 0.02 29.34 -1 29 C-1 28.01 -1 27.02 -1 26 C-0.34 26 0.32 26 1 26 C0.67 17.42 0.34 8.84 0 0 Z " fill="#A7A3A3" transform="translate(466,282)"/>
<path d="M0 0 C2.62386487 3.06117568 3 3.73173127 3 8 C-3.43255401 8.12086218 -9.61773055 7.82351864 -16 7 C-16 6.67 -16 6.34 -16 6 C-10.39 6 -4.78 6 1 6 C0.67 4.02 0.34 2.04 0 0 Z " fill="#9E9C9B" transform="translate(317,262)"/>
<path d="M0 0 C2.67710191 1.33855096 2.95129094 2.72058088 4.125 5.4375 C4.47820312 6.24058594 4.83140625 7.04367188 5.1953125 7.87109375 C6 10 6 10 6 12 C2.18315774 10.44499019 -0.19195732 7.96404505 -3 5 C-2.01 4.67 -1.02 4.34 0 4 C0 2.68 0 1.36 0 0 Z " fill="#B0ACAC" transform="translate(441,189)"/>
<path d="M0 0 C10.395 0.99 10.395 0.99 21 2 C21 2.33 21 2.66 21 3 C16.05 3.33 11.1 3.66 6 4 C6 4.66 6 5.32 6 6 C5.34 6 4.68 6 4 6 C4 5.34 4 4.68 4 4 C2.68 3.34 1.36 2.68 0 2 C0 1.34 0 0.68 0 0 Z " fill="#959191" transform="translate(110,341)"/>
<path d="M0 0 C0.33 0.99 0.66 1.98 1 3 C-0.38607623 4.46761013 -1.78431195 5.92374189 -3.1875 7.375 C-3.96480469 8.18710937 -4.74210938 8.99921875 -5.54296875 9.8359375 C-7.987055 11.98859852 -9.92616557 13.00632706 -13 14 C-8.88380164 9.08064098 -4.59589638 4.47352044 0 0 Z " fill="#9D9C9C" transform="translate(136,474)"/>
<path d="M0 0 C1.32 0.66 2.64 1.32 4 2 C4 2.66 4 3.32 4 4 C-2.06696699 4.77040851 -7.88514973 5.09706112 -14 5 C-14.33 4.34 -14.66 3.68 -15 3 C-10.05 2.67 -5.1 2.34 0 2 C0 1.34 0 0.68 0 0 Z " fill="#A8A2A1" transform="translate(92,301)"/>
<path d="M0 0 C1.32 0.33 2.64 0.66 4 1 C2.88121617 2.17262904 1.75476949 3.33795138 0.625 4.5 C-0.00148438 5.1496875 -0.62796875 5.799375 -1.2734375 6.46875 C-3 8 -3 8 -5 8 C-5 8.66 -5 9.32 -5 10 C-5.66 10 -6.32 10 -7 10 C-5.63055898 7.05043472 -4.12169591 4.47531189 -2 2 C-1.34 2 -0.68 2 0 2 C0 1.34 0 0.68 0 0 Z " fill="#BFBCBD" transform="translate(66,333)"/>
<path d="M0 0 C5.28 0.66 10.56 1.32 16 2 C15.01 3.485 15.01 3.485 14 5 C8.94744036 4.36843005 4.70406799 2.86540627 0 1 C0 0.67 0 0.34 0 0 Z " fill="#C5BCBC" transform="translate(269,149)"/>
<path d="M0 0 C0.8125 1.625 0.8125 1.625 1 4 C-1.86287501 8.2101103 -3.98169616 10.5661989 -9 12 C-8.67 11.01 -8.34 10.02 -8 9 C-7.34 9 -6.68 9 -6 9 C-5.7525 8.443125 -5.505 7.88625 -5.25 7.3125 C-3.78393985 4.60028873 -1.97010529 2.36412635 0 0 Z " fill="#BBB8B9" transform="translate(232,50)"/>
<path d="M0 0 C1.17781058 3.68065805 1 7.1644081 1 11 C1.33 11.99 1.66 12.98 2 14 C1.0625 16.6875 1.0625 16.6875 0 19 C-0.33 19 -0.66 19 -1 19 C-1.02697137 16.39576408 -1.04682489 13.79180756 -1.0625 11.1875 C-1.07087891 10.44951172 -1.07925781 9.71152344 -1.08789062 8.95117188 C-1.10259828 5.70077932 -1.03531702 3.10595105 0 0 Z " fill="#94918F" transform="translate(51,360)"/>
<path d="M0 0 C-0.66 1.65 -1.32 3.3 -2 5 C-0.68 5.33 0.64 5.66 2 6 C-0.97 5.67 -3.94 5.34 -7 5 C-6 2 -6 2 -4.0625 0.8125 C-2 0 -2 0 0 0 Z " fill="#ADAAAB" transform="translate(84,425)"/>
<path d="M0 0 C0.33 0.66 0.66 1.32 1 2 C-4.0940919 8.86214442 -4.0940919 8.86214442 -7.875 9.4375 C-8.57625 9.293125 -9.2775 9.14875 -10 9 C-6.83047153 5.73991357 -3.60062011 2.77762123 0 0 Z " fill="#C2C0C0" transform="translate(282,179)"/>
<path d="M0 0 C0.66 0.33 1.32 0.66 2 1 C-0.31 3.64 -2.62 6.28 -5 9 C-6.32 8.67 -7.64 8.34 -9 8 C-7.8803014 6.99406757 -6.7540588 5.9954151 -5.625 5 C-4.68527344 4.1646875 -4.68527344 4.1646875 -3.7265625 3.3125 C-2 2 -2 2 0 2 C0 1.34 0 0.68 0 0 Z " fill="#A4A1A2" transform="translate(66,220)"/>
<path d="M0 0 C0.53625 0.226875 1.0725 0.45375 1.625 0.6875 C0.655625 1.14125 -0.31375 1.595 -1.3125 2.0625 C-4.44579582 3.34536221 -4.44579582 3.34536221 -5.375 5.6875 C-4.715 6.0175 -4.055 6.3475 -3.375 6.6875 C-5.025 6.3575 -6.675 6.0275 -8.375 5.6875 C-8.375 4.6975 -8.375 3.7075 -8.375 2.6875 C-2.95961538 -0.38942308 -2.95961538 -0.38942308 0 0 Z " fill="#B2ABAB" transform="translate(196.375,365.3125)"/>
<path d="M0 0 C1.40167793 2.80335585 0.96536981 4.0349356 0 7 C-2.4375 9.8125 -2.4375 9.8125 -5 12 C-5.66 12 -6.32 12 -7 12 C-5.61735163 9.13132769 -4.07851447 6.43975968 -2.375 3.75 C-1.92898437 3.04359375 -1.48296875 2.3371875 -1.0234375 1.609375 C-0.68570313 1.07828125 -0.34796875 0.5471875 0 0 Z " fill="#BCBABB" transform="translate(125,128)"/>
<path d="M0 0 C0.66 0.99 1.32 1.98 2 3 C1.34 3.66 0.68 4.32 0 5 C-0.66 5.70125 -1.32 6.4025 -2 7.125 C-4 9 -4 9 -6 9 C-4.47291037 5.56404834 -2.40072955 2.88087546 0 0 Z " fill="#D3D0D1" transform="translate(117,495)"/>
<path d="M0 0 C0.33 0.99 0.66 1.98 1 3 C1.99 3.33 2.98 3.66 4 4 C1.0534615 5.80066242 -1.88801935 7.50163895 -5 9 C-3.50163895 5.88801935 -1.80066242 2.9465385 0 0 Z " fill="#B9B8B9" transform="translate(312,338)"/>
<path d="M0 0 C0.33 0 0.66 0 1 0 C1.26785714 8.03571429 1.26785714 8.03571429 -1 12 C-1.22162329 10.37675914 -1.42689803 8.751279 -1.625 7.125 C-1.74101562 6.22007812 -1.85703125 5.31515625 -1.9765625 4.3828125 C-1.98429687 3.59648437 -1.99203125 2.81015625 -2 2 C-1.34 1.34 -0.68 0.68 0 0 Z " fill="#A9A5A5" transform="translate(319,280)"/>
<path d="M0 0 C0.66 0 1.32 0 2 0 C2 0.66 2 1.32 2 2 C4.475 2.99 4.475 2.99 7 4 C7 4.33 7 4.66 7 5 C4.36 5 1.72 5 -1 5 C-0.67 3.35 -0.34 1.7 0 0 Z " fill="#948F90" transform="translate(262,326)"/>
<path d="M0 0 C2.475 0.99 2.475 0.99 5 2 C4.67 3.32 4.34 4.64 4 6 C2.68 5.34 1.36 4.68 0 4 C0 2.68 0 1.36 0 0 Z " fill="#CAC7C7" transform="translate(268,254)"/>
<path d="M0 0 C-2.97 2.475 -2.97 2.475 -6 5 C-6 4.34 -6 3.68 -6 3 C-7.32 2.67 -8.64 2.34 -10 2 C-8.71211992 1.46987262 -7.41953322 0.9511671 -6.125 0.4375 C-5.40570312 0.14746094 -4.68640625 -0.14257812 -3.9453125 -0.44140625 C-2 -1 -2 -1 0 0 Z " fill="#A7A6A6" transform="translate(23,250)"/>
<path d="M0 0 C0.66 0.33 1.32 0.66 2 1 C1.67 1.99 1.34 2.98 1 4 C-1.5625 5.1875 -1.5625 5.1875 -4 6 C-4.33 5.34 -4.66 4.68 -5 4 C-4.34 4 -3.68 4 -3 4 C-3 3.34 -3 2.68 -3 2 C-2.01 1.34 -1.02 0.68 0 0 Z " fill="#B3B1B2" transform="translate(251,123)"/>
<path d="M0 0 C0.66 0 1.32 0 2 0 C1.67 3.3 1.34 6.6 1 10 C-1.56687367 6.1496895 -0.83288724 4.41430237 0 0 Z " fill="#897777" transform="translate(258,0)"/>
<path d="M0 0 C4.42857143 5.14285714 4.42857143 5.14285714 5 9 C4.01 8.67 3.02 8.34 2 8 C2 6.68 2 5.36 2 4 C1.34 4 0.68 4 0 4 C0 2.68 0 1.36 0 0 Z " fill="#A2A0A1" transform="translate(308,245)"/>
<path d="M0 0 C0.66 1.32 1.32 2.64 2 4 C-1.75 7 -1.75 7 -4 7 C-2.79618552 4.50638429 -1.54571278 2.31856917 0 0 Z " fill="#BAB7B7" transform="translate(106,154)"/>
<path d="M0 0 C0.66 0.66 1.32 1.32 2 2 C-1.465 4.97 -1.465 4.97 -5 8 C-5.66 7.67 -6.32 7.34 -7 7 C-4.69 4.69 -2.38 2.38 0 0 Z " fill="#AEA6A6" transform="translate(136,142)"/>
</svg>
